# Alias OBJ Model File
# Exported from SketchUp, (c) 2000-2012 Trimble Navigation Limited
# File units = meters

mtllib 1.mtl

g Mesh1 Model

usemtl Vegetation_Grass_Artificial
v 3.13624 0 -0.034068
vt -5.14476 0.0558858
vn 0 -1 -0
v 2.13624 0 -0.034068
vt -3.50434 0.0558858
v 2.13624 0 -1.03407
vt -3.50434 1.69631
v 3.13624 0 -1.03407
vt -5.14476 1.69631
f 1/1/1 2/2/1 3/3/1 4/4/1 

vt 3.50434 0
vn 0 0 1
vt 5.14476 0
v 3.13624 0.34 -0.034068
vt 5.14476 0.557743
v 2.13624 0.34 -0.034068
vt 3.50434 0.557743
f 2/5/2 1/6/2 5/7/2 6/8/2 

vt 0.0558858 0
vn 1 0 -0
vt 1.69631 0
v 3.13624 0.34 -1.03407
vt 1.69631 0.557743
vt 0.0558858 0.557743
f 1/9/3 4/10/3 7/11/3 5/12/3 

vt -5.14476 0
vn 0 0 -1
vt -3.50434 0
v 2.13624 0.34 -1.03407
vt -3.50434 0.557743
vt -5.14476 0.557743
f 4/13/4 3/14/4 8/15/4 7/16/4 

vt -1.69631 0
vn -1 0 -0
vt -0.0558858 0
vt -0.0558858 0.557743
vt -1.69631 0.557743
f 3/17/5 2/18/5 6/19/5 8/20/5 

vt 3.50434 0.0558858
vn 0 1 -0
vt 5.14476 0.0558858
vt 5.14476 1.69631
vt 3.50434 1.69631
f 6/21/6 5/22/6 7/23/6 8/24/6 

