{"asset":{"version":"2.0","generator":"babylon.js glTF exporter for 3ds max 2019 v1.4.2"},"scene":0,"scenes":[{"nodes":[0,1],"extensions":{}}],"nodes":[{"mesh":0,"translation":[41.4931831,0.0,-135.900284],"rotation":[0.0,0.0,0.0,1.0],"scale":[1.0,1.0,1.0],"name":"1231"},{"translation":[0.0,0.0,0.0],"rotation":[0.0,0.0,0.0,1.0],"scale":[1.0,1.0,1.0],"name":"Default light"}],"meshes":[{"primitives":[{"attributes":{"POSITION":1,"NORMAL":2,"TEXCOORD_0":3},"indices":0}],"name":"1231"}],"accessors":[{"bufferView":0,"componentType":5123,"count":648,"type":"SCALAR","name":"accessorIndices"},{"bufferView":1,"componentType":5126,"count":648,"max":[85.3086243,60.7967644,84.0126],"min":[-85.3086243,0.0,-84.0125961],"type":"VEC3","name":"accessorPositions"},{"bufferView":1,"byteOffset":7776,"componentType":5126,"count":648,"type":"VEC3","name":"accessorNormals"},{"bufferView":2,"componentType":5126,"count":648,"type":"VEC2","name":"accessorUVs"}],"bufferViews":[{"buffer":0,"byteLength":1296,"name":"bufferViewScalar"},{"buffer":0,"byteOffset":1296,"byteLength":15552,"byteStride":12,"name":"bufferViewFloatVec3"},{"buffer":0,"byteOffset":16848,"byteLength":5184,"byteStride":8,"name":"bufferViewFloatVec2"}],"buffers":[{"uri":"1.bin","byteLength":22032}]}