# Alias OBJ Model File
# Exported from SketchUp, (c) 2000-2012 Trimble Navigation Limited
# File units = meters

mtllib 2.mtl

g Mesh1 Group1 Model

usemtl Wood_Veneer_02
v 9.69 8.6 -19.07
vt 381.496 530.709
vn 0 1 -0
v 0 8.6 -19.07
vt 0 530.709
v 0 8.6 -5.59
vt 0 0
v 9.69 8.6 -5.59
vt 381.496 0
f 1/1/1 2/2/1 3/3/1 4/4/1 

v 9.69 0 -19.07
vt -381.496 0
vn 0 0 -1
v 0 0 -19.07
vt 0 338.583
vt -381.496 338.583
f 5/5/2 6/3/2 2/6/2 1/7/2 

vn 0 -1 -0
vt -381.496 530.709
v 9.69 0 -5.59
v 0 0 -5.59
f 6/2/3 5/8/3 7/5/3 8/3/3 

vn 1 0 -0
vt 530.709 0
vt 530.709 338.583
f 7/3/4 5/9/4 1/10/4 4/6/4 

vn 0 0 1
vt 381.496 338.583
f 8/3/5 7/4/5 4/11/5 3/6/5 

vt -530.709 0
vn -1 0 -0
vt -530.709 338.583
f 6/12/6 8/3/6 3/6/6 2/13/6 

g Mesh2 Group2 Model

usemtl Wood_Floor_Light
v 9.69 8.6 -4.99
v 0 8.6 -4.99
v 0 8.6 8.49
v 9.69 8.6 8.49
f 9/1/1 10/2/1 11/3/1 12/4/1 

v 9.69 0 -4.99
v 0 0 -4.99
f 13/5/2 14/3/2 10/6/2 9/7/2 

v 9.69 0 8.49
v 0 0 8.49
f 14/2/3 13/8/3 15/5/3 16/3/3 

f 15/3/4 13/9/4 9/10/4 12/6/4 

f 16/3/5 15/4/5 12/11/5 11/6/5 

f 14/12/6 16/3/6 11/6/6 10/13/6 

g Mesh3 Group3 Model

usemtl Wood_Board_Cork
v 9.69 8.6 -33.15
v 0 8.6 -33.15
v 0 8.6 -19.67
v 9.69 8.6 -19.67
f 17/1/1 18/2/1 19/3/1 20/4/1 

v 9.69 0 -33.15
v 0 0 -33.15
f 21/5/2 22/3/2 18/6/2 17/7/2 

v 9.69 0 -19.67
v 0 0 -19.67
f 22/2/3 21/8/3 23/5/3 24/3/3 

f 23/3/4 21/9/4 17/10/4 20/6/4 

f 24/3/5 23/4/5 20/11/5 19/6/5 

f 22/12/6 24/3/6 19/6/6 18/13/6 

